<svg width="128" height="128" viewBox="0 0 128 128" fill="none" xmlns="http://www.w3.org/2000/svg">
<rect width="128" height="128" fill="black"/>
<path d="M63.5 9.61804L77.0566 51.3409L77.1689 51.6864H77.5321H121.402L85.9106 77.4726L85.6167 77.6861L85.7289 78.0316L99.2855 119.755L63.7939 93.9684L63.5 93.7548L63.2061 93.9684L27.7145 119.755L41.2711 78.0316L41.3833 77.6861L41.0894 77.4726L5.59781 51.6864H49.4679H49.8311L49.9434 51.3409L63.5 9.61804Z" stroke="white"/>
<path d="M97.7106 48.6721L80.322 48.1158L74.4197 31.7503L97.7106 48.6721Z" stroke="white"/>
<path d="M52.0369 31.7503L46.1345 48.1158L28.746 48.6721L52.0369 31.7503Z" stroke="white"/>
<path d="M23.1918 69.1106L36.9324 79.7813L32.0881 96.4906L23.1918 69.1106Z" stroke="white"/>
<path d="M49.1054 108.375L63.5 98.6043L77.8946 108.375H49.1054Z" stroke="white"/>
<path d="M95.1359 95.4906L90.2915 78.7813L104.032 68.1105L95.1359 95.4906Z" stroke="white"/>
</svg>
